HIERARCHY
ROOT Hips
{
	OFFSET -3.958830 18.904000 13.208200
	CHANNELS 6 Xposition Yposition Zposition Zrotation Yrotation Xrotation 
	JOINT LHipJoint
	{
		OFFSET 0.000000 0.000000 0.000000
		CHANNELS 3 Zrotation Yrotation Xrotation
		JOINT LeftUpLeg
		{
			OFFSET 1.800000 -1.400000 0.085000
			CHANNELS 3 Zrotation Yrotation Xrotation
			JOINT LeftLeg
			{
				OFFSET 2.215000 -6.000000 0.000000
				CHANNELS 3 Zrotation Yrotation Xrotation
				JOINT LeftFoot
				{
					OFFSET 2.500000 -6.900000 0.000000
					CHANNELS 3 Zrotation Yrotation Xrotation
					JOINT LeftToeBase
					{
						OFFSET 0.200000 -0.500000 1.950000
						CHANNELS 3 Zrotation Yrotation Xrotation
						End Site
						{
							OFFSET 0.000000 0.000000 0.000000
						}
					}
				}
			}
		}
	}
	JOINT RHipJoint
	{
		OFFSET 0.000000 0.000000 0.000000
		CHANNELS 3 Zrotation Yrotation Xrotation
		JOINT RightUpLeg
		{
			OFFSET -1.800000 -1.400000 0.085000
			CHANNELS 3 Zrotation Yrotation Xrotation
			JOINT RightLeg
			{
				OFFSET -2.215000 -6.000000 0.000000
				CHANNELS 3 Zrotation Yrotation Xrotation
				JOINT RightFoot
				{
					OFFSET -2.500000 -6.900000 0.000000
					CHANNELS 3 Zrotation Yrotation Xrotation
					JOINT RightToeBase
					{
						OFFSET -0.200000 -0.500000 1.950000
						CHANNELS 3 Zrotation Yrotation Xrotation
						End Site
						{
							OFFSET 0.000000 0.000000 0.000000
						}
					}
				}
			}
		}
	}
	JOINT LowerBack
	{
		OFFSET 0.000000 0.000000 0.000000
		CHANNELS 3 Zrotation Yrotation Xrotation
		JOINT Spine
		{
			OFFSET -0.087000 1.940000 -0.288900
			CHANNELS 3 Zrotation Yrotation Xrotation
			JOINT Spine1
			{
				OFFSET 0.000000 1.950000 0.060000
				CHANNELS 3 Zrotation Yrotation Xrotation
				JOINT Neck
				{
					OFFSET 0.000000 0.000000 0.000000
					CHANNELS 3 Zrotation Yrotation Xrotation
					JOINT Neck1
					{
						OFFSET 0.000000 1.600000 0.340000
						CHANNELS 3 Zrotation Yrotation Xrotation
						JOINT Head
						{
							OFFSET 0.000000 1.667000 -0.240000
							CHANNELS 3 Zrotation Yrotation Xrotation
							End Site
							{
								OFFSET 0.000000 0.000000 0.000000
							}
						}
					}
				}
				JOINT LeftShoulder
				{
					OFFSET 0.000000 0.000000 0.000000
					CHANNELS 3 Zrotation Yrotation Xrotation
					JOINT LeftArm
					{
						OFFSET 2.700000 1.550000 -0.730000
						CHANNELS 3 Zrotation Yrotation Xrotation
						JOINT LeftForeArm
						{
							OFFSET 5.450000 0.000000 0.000000
							CHANNELS 3 Zrotation Yrotation Xrotation
							JOINT LeftHand
							{
								OFFSET 3.450000 0.000000 0.000000
								CHANNELS 3 Zrotation Yrotation Xrotation
								JOINT LeftHandIndex1
								{
									OFFSET 0.750000 0.000000 0.000000
									CHANNELS 3 Zrotation Yrotation Xrotation
									End Site
									{
										OFFSET 0.000000 0.000000 0.000000
									}
								}
							}
						}
					}
				}
				JOINT RightShoulder
				{
					OFFSET 0.000000 0.000000 0.000000
					CHANNELS 3 Zrotation Yrotation Xrotation
					JOINT RightArm
					{
						OFFSET -2.700000 1.550000 -0.730000
						CHANNELS 3 Zrotation Yrotation Xrotation
						JOINT RightForeArm
						{
							OFFSET -5.450000 0.000000 0.000000
							CHANNELS 3 Zrotation Yrotation Xrotation
							JOINT RightHand
							{
								OFFSET -3.450000 0.000000 0.000000
								CHANNELS 3 Zrotation Yrotation Xrotation
								JOINT RightHandIndex1
								{
									OFFSET -0.750000 0.000000 0.000000
									CHANNELS 3 Zrotation Yrotation Xrotation
									End Site
									{
										OFFSET 0.000000 0.000000 0.000000
									}
								}
							}
						}
					}
				}
			}
		}
	}
}
MOTION
Frames: 7
Frame Time: 0.016667
-1.095740 16.942630 -2.683580 -3.453668 -1.863046 -0.473010 -15.442606 13.019720 3.341857 29.530110 -0.743352 -28.305514 5.231268 9.626225 41.881896 0.003709 8.037236 1.344764 0.335690 0.379380 0.337820 18.336185 -8.997592 3.544931 -27.027391 2.690569 -40.415474 4.752144 -11.691022 45.260416 -0.684034 -7.076114 1.548228 0.303930 -0.046690 0.125170 -3.290811 -3.903757 -8.881025 5.324895 -7.444733 25.648809 0.222457 -7.498786 13.561462 -2.791210 -1.105114 -11.825345 -10.034549 6.035185 59.369487 -6.805100 8.721080 -9.049190 -6.119699 -35.022088 0.625110 -22.098889 -45.338494 8.524439 -133.325141 -79.633728 126.026837 -3.498017 2.008842 0.297180 0.046690 0.205660 -0.009190 12.584139 31.493075 9.788172 49.896281 33.988680 -4.293480 -13.088129 55.724769 -9.513819 1.900333 -1.138498 -0.084480 0.205460 0.000010 -0.160620 
-1.103990 16.917870 -2.669940 -3.248359 -1.478249 -0.490374 -15.424977 12.955862 3.370551 29.555878 -0.977654 -28.502589 5.073311 9.717483 42.419384 0.009866 8.117007 1.313994 0.333510 0.374850 0.342390 18.357674 -9.003909 3.561886 -27.368622 2.503765 -40.509180 4.759514 -11.971580 45.844820 -0.712744 -7.199612 1.505636 0.299400 -0.047040 0.120570 -3.347372 -3.811380 -8.914900 5.337863 -7.453534 25.709464 -0.304236 -7.491994 12.954129 -2.805968 -0.768687 -12.205300 -9.631029 5.842252 60.778969 -6.101380 8.985590 -8.747460 -5.589053 -36.276870 0.695429 -21.754173 -45.507188 8.582138 -129.124979 -79.717983 121.893910 -3.513804 1.747544 0.314780 0.040110 0.213200 -0.014140 12.049322 32.350139 9.807465 50.656384 33.519355 -2.392384 -8.013519 46.038748 -5.766371 2.010436 -1.199132 -0.091160 0.213080 0.004480 -0.166680 
-1.126230 16.875920 -2.650060 -3.026398 -1.962181 -0.731902 -15.457379 12.891896 3.520583 30.432195 -1.329225 -28.707794 4.328755 10.423018 44.099214 0.078608 8.456751 1.176823 0.352520 0.399800 0.349220 18.338282 -8.927144 3.544062 -27.036018 2.348692 -41.034075 3.668770 -11.869048 47.246255 -0.767535 -7.308755 1.467863 0.292720 -0.076330 0.121590 -3.273697 -3.913017 -9.025538 4.515770 -6.964177 26.677352 0.519916 -7.085896 11.834856 -3.490988 -0.973372 -12.852418 -10.903907 6.191620 61.921875 -4.792120 8.968770 -9.362680 -4.853741 -37.413314 0.420375 -19.996848 -45.358034 8.757805 -136.529341 -78.658925 129.242971 -3.468803 2.191919 0.350860 0.002250 0.247640 -0.018790 12.612335 33.567234 10.506951 51.771549 30.673749 -2.331035 -0.952081 40.580405 -2.808620 2.103559 -1.244883 -0.072030 0.205560 0.000100 -0.164980 
-1.137760 16.835980 -2.640080 -2.667333 -2.505310 -0.817583 -15.467154 12.791253 3.608228 31.076638 -1.876435 -28.501000 3.143137 11.143371 44.977570 0.112536 8.702832 1.081862 0.355510 0.404610 0.350730 18.342655 -8.905494 3.536859 -26.508898 1.935934 -42.001262 1.980303 -11.452335 48.447462 -0.794354 -7.363263 1.448556 0.289980 -0.088670 0.118580 -3.264118 -3.869934 -9.077083 3.779937 -6.416068 27.067992 0.781912 -6.653548 11.440414 -4.059890 -0.964689 -13.061344 -11.295974 6.250805 62.186563 -3.938180 9.200970 -9.741610 -3.651867 -37.167518 0.421562 -17.650660 -44.652931 8.717079 -154.037473 -77.477407 148.128068 -3.459514 2.777484 0.373730 -0.014000 0.261100 -0.025700 12.472135 33.422018 10.798610 54.507780 28.392741 -2.612115 3.565217 38.470494 -1.562012 2.149728 -1.272108 -0.072200 0.203510 0.002480 -0.170390 
-1.142840 16.812720 -2.640810 -2.632017 -3.132758 -0.850575 -15.487280 12.696074 3.711963 31.912895 -2.170265 -28.457961 2.137989 11.876340 45.730511 0.144273 8.974487 0.987820 0.340220 0.380280 0.350290 18.342756 -8.849086 3.520792 -25.882626 1.837234 -42.758648 0.689569 -11.051645 49.358760 -0.808703 -7.392152 1.439967 0.274860 -0.083530 0.118250 -3.237677 -3.876245 -9.120926 3.230870 -6.101290 27.545140 1.183529 -6.404486 10.992097 -4.515832 -1.304236 -13.103583 -12.440500 6.594364 62.373769 -3.771210 9.363770 -9.884840 -3.343846 -36.433697 0.479044 -16.078076 -44.372638 9.360192 -166.560306 -74.720315 161.865810 -3.500276 3.005412 0.393960 -0.018170 0.263140 -0.038480 13.095527 32.957228 10.813514 56.574802 26.628255 -3.070666 7.007122 37.107244 -0.735059 2.185218 -1.274839 -0.083360 0.212230 0.018660 -0.177100 
-1.137220 16.787250 -2.629040 -2.541648 -3.409247 -0.774925 -15.525798 12.644690 3.796481 32.530205 -2.409909 -28.310812 1.098169 12.564504 46.206445 0.204256 9.173789 0.921105 0.335350 0.381160 0.337790 18.319698 -8.759371 3.530616 -25.879157 1.594958 -43.259045 0.263784 -11.091348 50.019353 -0.829234 -7.483348 1.416945 0.264600 -0.082630 0.113060 -3.151358 -3.988339 -9.180770 2.629986 -5.733275 27.669353 2.184556 -6.039951 10.260843 -4.832071 -1.695910 -13.333793 -13.812622 7.343521 63.260275 -3.113890 9.554380 -9.148790 -4.081483 -35.919795 0.585791 -16.769278 -44.195379 9.707801 -163.426141 -73.350849 157.180431 -3.470338 2.983770 0.391000 -0.025270 0.266070 -0.034200 14.555506 32.744260 10.848022 57.199193 24.641724 -3.402959 10.035467 34.532899 0.000446 2.231896 -1.286220 -0.075040 0.207070 0.015470 -0.166710 
-1.118110 16.762040 -2.615770 -2.756541 -3.720463 -0.721271 -15.550843 12.613129 3.851743 32.980908 -2.472073 -28.247563 0.679725 12.966436 46.691699 0.240218 9.332164 0.874401 0.326130 0.365600 0.341060 18.301029 -8.712633 3.544065 -25.737832 1.617883 -43.489374 0.215620 -11.157482 50.337002 -0.838967 -7.528615 1.406815 0.254920 -0.082240 0.109990 -3.090070 -4.018642 -9.230229 2.471826 -5.344379 27.709275 2.849000 -5.537951 9.840133 -4.841674 -1.765791 -13.408368 -14.096516 7.317012 63.670637 -3.348820 9.725110 -8.720490 -5.289436 -35.761451 0.750547 -17.918116 -44.520920 10.573266 -162.407107 -72.443661 155.462150 -3.465246 2.953872 0.393020 -0.024480 0.265620 -0.035740 15.829832 32.681677 10.753216 57.337375 23.403798 -3.344767 10.936529 31.343257 0.166254 2.258207 -1.279781 -0.080210 0.208810 0.016220 -0.171140 
